<mxfile host="app.diagrams.net" modified="2024-07-06T04:15:08.728Z" agent="Mozilla/5.0 (Windows NT 10.0; Win64; x64) AppleWebKit/537.36 (KHTML, like Gecko) Chrome/126.0.0.0 Safari/537.36" version="24.5.5" etag="PN508aOq724_ML5l5yqr" type="github">
  <diagram name="第 1 页" id="14oR3Yr_e4l7XJ89kRSQ">
    <mxGraphModel>
      <root>
        <mxCell id="0" />
        <mxCell id="1" parent="0" />
      </root>
    </mxGraphModel>
  </diagram>
</mxfile>
